<svg t="1647323133322" class="icon" viewBox="0 0 1024 1024" version="1.1" xmlns="http://www.w3.org/2000/svg" p-id="9343" width="200" height="200"><path d="M220.353886 839.165357h585.506831l32.026559-506.803265S808.075319 12.94827 501.43805 12.94827 188.327327 351.612099 188.327327 351.612099z" fill="#FF9FC2" p-id="9344"></path><path d="M443.858385 695.386548h133.046504l29.811956 92.672597 81.940293 12.776553v46.847361s-60.646038 29.811957-175.635014 35.092932a284.32089 284.32089 0 0 1-194.88502-72.400466l105.44915-19.079653z" fill="#FFECE3" p-id="9345"></path><path d="M232.278669 837.802525c-42.58851 49.743379-51.106212 167.45802-51.106212 167.45802h655.863049s9.880534-103.575255-46.847361-158.940318a185.345194 185.345194 0 0 0-104.938088-43.269926 254.168226 254.168226 0 0 1-162.688107 55.365062 339.004537 339.004537 0 0 1-190.626169-52.128335 97.612864 97.612864 0 0 0-99.657112 31.515497z" fill="#FFF385" p-id="9346"></path><path d="M292.754352 272.738179H741.977952v229.977952s-61.668162 200.165995-223.504499 200.165995c-204.424846 0-227.76335-212.942548-227.763349-212.942548z" fill="#FFECE3" p-id="9347"></path><path d="M685.250057 525.373218m-46.84736 0a46.847361 46.847361 0 1 0 93.694721 0 46.847361 46.847361 0 1 0-93.694721 0Z" fill="#EC7094" p-id="9348"></path><path d="M338.749943 525.373218m-46.847361 0a46.847361 46.847361 0 1 0 93.694721 0 46.847361 46.847361 0 1 0-93.694721 0Z" fill="#EC7094" p-id="9349"></path><path d="M628.351808 342.41298l-60.305329-5.110621a13.117261 13.117261 0 0 0-13.798677 11.754429 12.776553 12.776553 0 0 0 11.584074 13.798677l60.30533 5.110621h1.022124a12.776553 12.776553 0 0 0 1.022124-25.553106zM397.69244 367.795732l60.30533-5.110621a12.776553 12.776553 0 0 0 11.584074-13.798677 12.946907 12.946907 0 0 0-13.798677-11.754429l-60.305329 5.110621a12.776553 12.776553 0 0 0 1.022124 25.553106z" fill="#4C4497" p-id="9350"></path><path d="M429.718999 439.855491m-33.900453 0a33.900454 33.900454 0 1 0 67.800907 0 33.900454 33.900454 0 1 0-67.800907 0Z" fill="#4C4497" p-id="9351"></path><path d="M594.281001 439.855491m-33.900454 0a33.900454 33.900454 0 1 0 67.800907 0 33.900454 33.900454 0 1 0-67.800907 0Z" fill="#4C4497" p-id="9352"></path><path d="M849.641705 924.342376A156.555361 156.555361 0 0 0 820.851872 851.94191l28.960187-494.026712A338.323121 338.323121 0 0 0 265.838414 106.302283 335.256748 335.256748 0 0 0 174.187941 357.915198l28.789833 494.026712a156.555361 156.555361 0 0 0-28.619479 72.059758l-10.221242 78.703566a17.035404 17.035404 0 0 0 14.820802 19.590715h2.214602a17.035404 17.035404 0 0 0 17.035404-14.820802l10.221242-78.703566a122.143846 122.143846 0 0 1 108.856231-106.130566l19.42036-2.044248A345.989052 345.989052 0 0 0 512 865.570233c11.924783 0 23.849565 0 35.43364-1.533186a8.517702 8.517702 0 0 0 7.665932-9.199118 8.688056 8.688056 0 0 0-9.199118-7.665932c-11.073013 1.022124-22.486733 1.533186-34.070808 1.533186A341.559847 341.559847 0 0 1 366.688005 817.871102l28.108416-2.896018A61.1571 61.1571 0 0 0 448.457944 766.764891l11.584074-56.216833a238.495654 238.495654 0 0 0 103.915964 0l11.584074 56.216833a61.1571 61.1571 0 0 0 53.831877 48.550901l27.767708 2.896018a284.32089 284.32089 0 0 1-27.597354 11.584075 8.517702 8.517702 0 0 0 2.896018 17.035404 8.517702 8.517702 0 0 0 2.896019 0 287.557617 287.557617 0 0 0 52.29869-24.530982l19.42036 2.044249a122.143846 122.143846 0 0 1 108.856231 106.130566l10.221242 78.703566a17.035404 17.035404 0 0 0 17.035404 14.820801h2.214603a17.035404 17.035404 0 0 0 14.650447-19.079652zM303.145949 472.73382V286.536856h417.708102v186.196964a208.854051 208.854051 0 0 1-417.708102 0z m407.316506 316.006742l-77.511088-8.00664a27.256646 27.256646 0 0 1-23.849565-21.634963l-11.924783-58.942497a243.095213 243.095213 0 0 0 158.258902-227.422642V269.501452a17.035404 17.035404 0 0 0-17.035404-17.035404H286.110545a17.035404 17.035404 0 0 0-17.035404 17.035404v203.232368A243.095213 243.095213 0 0 0 426.822981 700.156462l-12.265491 59.112851a27.256646 27.256646 0 0 1-23.849565 21.634963l-77.511088 8.00664a156.385007 156.385007 0 0 0-78.362858 30.834081l-27.086292-463.362985A304.252313 304.252313 0 0 1 733.46025 129.81114a301.526648 301.526648 0 0 1 82.451355 226.570872l-27.256646 463.192631a156.385007 156.385007 0 0 0-78.192504-30.834081z" fill="#4C4497" p-id="9353"></path><path d="M597.177019 838.654295l-11.243366 2.555311a8.517702 8.517702 0 0 0 1.70354 17.035403h1.703541l11.924782-2.725664a8.517702 8.517702 0 1 0-3.918143-17.035404zM559.528777 513.448435a8.517702 8.517702 0 0 0-8.517702 8.517702 39.011075 39.011075 0 0 1-78.02215 0 8.517702 8.517702 0 0 0-17.035404 0 56.046479 56.046479 0 0 0 112.092958 0 8.517702 8.517702 0 0 0-8.517702-8.517702z" fill="#4C4497" p-id="9354"></path></svg>